M48
; DRILL file {KiCad 9.0.7} date 2026-02-09T14:46:31+0200
; FORMAT={-:-/ absolute / metric / decimal}
; #@! TF.CreationDate,2026-02-09T14:46:31+02:00
; #@! TF.GenerationSoftware,Kicad,Pcbnew,9.0.7
; #@! TF.FileFunction,Plated,1,6,PTH
FMAT,2
METRIC
; #@! TA.AperFunction,Plated,PTH,ViaDrill
T1C0.300
; #@! TA.AperFunction,Plated,PTH,ComponentDrill
T2C0.300
; #@! TA.AperFunction,Plated,PTH,ComponentDrill
T3C0.500
; #@! TA.AperFunction,Plated,PTH,ComponentDrill
T4C0.600
; #@! TA.AperFunction,Plated,PTH,ComponentDrill
T5C1.000
; #@! TA.AperFunction,Plated,PTH,ComponentDrill
T6C1.067
; #@! TA.AperFunction,Plated,PTH,ComponentDrill
T7C1.300
; #@! TA.AperFunction,Plated,PTH,ComponentDrill
T8C1.700
; #@! TA.AperFunction,Plated,PTH,ComponentDrill
T9C3.200
; #@! TA.AperFunction,Plated,PTH,ComponentDrill
T10C4.200
%
G90
G05
T1
X100.99Y-75.88
X101.67Y-104.77
X101.74Y-92.64
X101.797Y-73.294
X101.815Y-97.665
X102.24Y-126.95
X102.28Y-122.58
X102.36Y-100.61
X102.709Y-105.342
X102.9Y-122.58
X102.9Y-126.83
X102.94Y-108.44
X103.25Y-101.09
X103.27Y-100.25
X103.58Y-95.1
X103.591Y-105.794
X103.71Y-73.81
X103.79Y-112.68
X103.79Y-114.02
X103.84Y-121.63
X103.85Y-116.39
X103.85Y-123.52
X103.85Y-124.08
X103.85Y-124.64
X103.85Y-125.88
X103.86Y-127.79
X103.86Y-128.355
X103.86Y-128.92
X104.283Y-105.688
X104.32Y-92.92
X104.57Y-122.67
X104.57Y-126.97
X104.63Y-101.095
X104.91Y-110.29
X104.911Y-105.379
X105.01Y-79.83
X105.16Y-99.1
X105.32Y-106.85
X105.42Y-112.701
X105.55Y-114.05
X105.55Y-127.78
X105.75Y-118.69
X105.875Y-46.15
X106.0Y-67.4
X106.1Y-105.09
X106.19Y-123.5
X106.31Y-99.92
X106.32Y-102.62
X106.6Y-112.18
X107.125Y-108.245
X107.125Y-109.205
X107.286Y-110.026
X107.425Y-46.15
X107.78Y-112.048
X108.04Y-116.42
X108.13Y-107.31
X108.76Y-100.185
X108.76Y-100.685
X108.76Y-101.185
X108.76Y-101.685
X108.83Y-96.74
X108.83Y-97.24
X108.83Y-97.74
X108.83Y-98.24
X109.17Y-116.43
X109.26Y-100.185
X109.26Y-100.685
X109.26Y-101.185
X109.26Y-101.685
X109.33Y-96.74
X109.33Y-97.24
X109.33Y-97.74
X109.33Y-98.24
X109.76Y-100.185
X109.76Y-100.685
X109.76Y-101.185
X109.76Y-101.685
X109.82Y-65.5
X109.83Y-96.74
X109.83Y-97.24
X109.83Y-97.74
X109.83Y-98.24
X109.95Y-63.2
X110.26Y-100.185
X110.26Y-100.685
X110.26Y-101.185
X110.26Y-101.685
X110.33Y-96.74
X110.33Y-97.24
X110.33Y-97.74
X110.33Y-98.24
X110.35Y-107.24
X110.35Y-107.8
X110.38Y-117.12
X110.38Y-117.87
X110.38Y-118.62
X110.4Y-116.35
X110.7Y-49.984
X111.07Y-100.185
X111.07Y-100.685
X111.07Y-101.185
X111.07Y-101.685
X111.1Y-107.24
X111.1Y-107.8
X111.13Y-117.12
X111.13Y-117.87
X111.13Y-118.62
X111.14Y-96.74
X111.14Y-97.24
X111.14Y-97.74
X111.14Y-98.24
X111.15Y-116.35
X111.4Y-61.45
X111.57Y-100.185
X111.57Y-100.685
X111.57Y-101.185
X111.57Y-101.685
X111.59Y-87.26
X111.59Y-87.86
X111.59Y-88.46
X111.59Y-89.06
X111.6Y-93.34
X111.6Y-93.94
X111.6Y-94.54
X111.6Y-95.14
X111.64Y-96.74
X111.64Y-97.24
X111.64Y-97.74
X111.64Y-98.24
X111.85Y-107.24
X111.85Y-107.8
X111.88Y-117.12
X111.88Y-117.87
X111.88Y-118.62
X111.9Y-116.35
X112.07Y-100.185
X112.07Y-100.685
X112.07Y-101.185
X112.07Y-101.685
X112.14Y-96.74
X112.14Y-97.24
X112.14Y-97.74
X112.14Y-98.24
X112.15Y-40.8
X112.2Y-87.25
X112.2Y-87.85
X112.2Y-88.45
X112.2Y-89.05
X112.23Y-93.34
X112.23Y-93.94
X112.23Y-94.54
X112.23Y-95.14
X112.33Y-53.85
X112.33Y-55.25
X112.33Y-56.65
X112.36Y-63.06
X112.51Y-136.83
X112.57Y-100.185
X112.57Y-100.685
X112.57Y-101.185
X112.57Y-101.685
X112.6Y-45.8
X112.6Y-107.24
X112.6Y-107.8
X112.63Y-117.12
X112.63Y-117.87
X112.63Y-118.62
X112.64Y-96.74
X112.64Y-97.24
X112.64Y-97.74
X112.64Y-98.24
X112.65Y-116.35
X112.8Y-87.25
X112.8Y-87.85
X112.8Y-88.45
X112.8Y-89.05
X112.83Y-93.34
X112.83Y-93.94
X112.83Y-94.54
X112.83Y-95.14
X113.35Y-107.24
X113.35Y-107.8
X113.38Y-100.185
X113.38Y-100.685
X113.38Y-101.185
X113.38Y-101.685
X113.38Y-117.12
X113.38Y-117.87
X113.38Y-118.62
X113.4Y-40.8
X113.4Y-44.25
X113.4Y-87.26
X113.4Y-87.86
X113.4Y-88.46
X113.4Y-89.06
X113.4Y-116.35
X113.45Y-96.74
X113.45Y-97.24
X113.45Y-97.74
X113.45Y-98.24
X113.47Y-93.34
X113.47Y-93.94
X113.47Y-94.54
X113.47Y-95.14
X113.47Y-136.83
X113.65Y-63.05
X113.74Y-53.85
X113.74Y-55.25
X113.74Y-56.65
X113.88Y-100.185
X113.88Y-100.685
X113.88Y-101.185
X113.88Y-101.685
X113.95Y-96.74
X113.95Y-97.24
X113.95Y-97.74
X113.95Y-98.24
X114.1Y-107.24
X114.1Y-107.8
X114.13Y-117.12
X114.13Y-117.87
X114.13Y-118.62
X114.15Y-116.35
X114.38Y-100.185
X114.38Y-100.685
X114.38Y-101.185
X114.38Y-101.685
X114.45Y-96.74
X114.45Y-97.24
X114.45Y-97.74
X114.45Y-98.24
X114.67Y-44.2
X114.67Y-136.8
X114.68Y-139.95
X114.7Y-40.8
X114.85Y-107.24
X114.85Y-107.8
X114.88Y-100.185
X114.88Y-100.685
X114.88Y-101.185
X114.88Y-101.685
X114.88Y-117.12
X114.88Y-117.87
X114.88Y-118.62
X114.9Y-63.05
X114.9Y-116.35
X114.95Y-96.74
X114.95Y-97.24
X114.95Y-97.74
X114.95Y-98.24
X115.0Y-89.0
X115.0Y-90.125
X115.07Y-86.13
X115.08Y-85.2
X115.14Y-53.85
X115.14Y-55.25
X115.14Y-56.65
X115.46Y-83.04
X115.6Y-107.24
X115.6Y-107.8
X115.63Y-117.12
X115.63Y-117.87
X115.63Y-118.62
X115.65Y-84.31
X115.65Y-116.35
X115.67Y-100.195
X115.67Y-100.695
X115.67Y-101.195
X115.67Y-101.695
X115.74Y-96.75
X115.74Y-97.25
X115.74Y-97.75
X115.74Y-98.25
X116.0Y-89.0
X116.0Y-90.125
X116.145Y-140.63
X116.15Y-63.1
X116.17Y-100.195
X116.17Y-100.695
X116.17Y-101.195
X116.17Y-101.695
X116.24Y-96.75
X116.24Y-97.25
X116.24Y-97.75
X116.24Y-98.25
X116.6Y-133.66
X116.62Y-82.06
X116.67Y-100.195
X116.67Y-100.695
X116.67Y-101.195
X116.67Y-101.695
X116.74Y-96.75
X116.74Y-97.25
X116.74Y-97.75
X116.74Y-98.25
X117.0Y-89.0
X117.0Y-90.125
X117.08Y-116.51
X117.11Y-140.9
X117.17Y-100.195
X117.17Y-100.695
X117.17Y-101.195
X117.17Y-101.695
X117.24Y-96.75
X117.24Y-97.25
X117.24Y-97.75
X117.24Y-98.25
X117.66Y-133.66
X117.78Y-107.33
X117.959Y-64.049
X117.99Y-100.195
X117.99Y-100.695
X117.99Y-101.195
X117.99Y-101.695
X118.0Y-89.0
X118.0Y-90.125
X118.0Y-113.25
X118.06Y-96.75
X118.06Y-97.25
X118.06Y-97.75
X118.06Y-98.25
X118.095Y-138.135
X118.26Y-116.44
X118.49Y-100.195
X118.49Y-100.695
X118.49Y-101.195
X118.49Y-101.695
X118.56Y-96.75
X118.56Y-97.25
X118.56Y-97.75
X118.56Y-98.25
X118.608Y-114.059
X118.76Y-108.38
X118.79Y-109.35
X118.79Y-132.66
X118.81Y-110.1
X118.99Y-63.66
X118.99Y-100.195
X118.99Y-100.695
X118.99Y-101.195
X118.99Y-101.695
X119.06Y-96.75
X119.06Y-97.25
X119.06Y-97.75
X119.06Y-98.25
X119.49Y-100.195
X119.49Y-100.695
X119.49Y-101.195
X119.49Y-101.695
X119.56Y-96.75
X119.56Y-97.25
X119.56Y-97.75
X119.56Y-98.25
X119.84Y-132.66
X120.25Y-100.195
X120.25Y-100.695
X120.25Y-101.195
X120.25Y-101.695
X120.32Y-96.75
X120.32Y-97.25
X120.32Y-97.75
X120.32Y-98.25
X120.42Y-82.25
X120.75Y-100.195
X120.75Y-100.695
X120.75Y-101.195
X120.75Y-101.695
X120.82Y-96.75
X120.82Y-97.25
X120.82Y-97.75
X120.82Y-98.25
X121.12Y-133.73
X121.25Y-100.195
X121.25Y-100.695
X121.25Y-101.195
X121.25Y-101.695
X121.32Y-96.75
X121.32Y-97.25
X121.32Y-97.75
X121.32Y-98.25
X121.37Y-138.28
X121.37Y-139.24
X121.38Y-82.25
X121.75Y-100.195
X121.75Y-100.695
X121.75Y-101.195
X121.75Y-101.695
X121.82Y-96.75
X121.82Y-97.25
X121.82Y-97.75
X121.82Y-98.25
X122.17Y-133.65
X122.175Y-82.633
X122.98Y-143.6
X122.98Y-145.15
X123.05Y-64.635
X123.13Y-81.95
X123.32Y-62.465
X123.72Y-81.49
X124.1Y-61.19
X124.5Y-85.0
X125.51Y-92.03
X125.51Y-92.53
X125.51Y-93.03
X125.51Y-93.53
X125.51Y-94.03
X125.51Y-94.53
X125.51Y-95.03
X125.51Y-95.53
X125.51Y-96.03
X125.51Y-96.53
X125.51Y-100.53
X125.51Y-101.03
X125.51Y-101.53
X125.51Y-102.03
X125.51Y-102.53
X125.51Y-103.03
X125.51Y-103.53
X125.51Y-104.03
X125.65Y-119.151
X125.655Y-54.195
X125.78Y-88.42
X125.78Y-88.92
X125.78Y-89.42
X125.78Y-89.92
X125.78Y-90.42
X125.78Y-90.92
X125.99Y-85.84
X126.01Y-92.03
X126.01Y-92.53
X126.01Y-93.03
X126.01Y-93.53
X126.01Y-94.03
X126.01Y-94.53
X126.01Y-95.03
X126.01Y-95.53
X126.01Y-96.03
X126.01Y-96.53
X126.01Y-100.53
X126.01Y-101.03
X126.01Y-101.53
X126.01Y-102.03
X126.01Y-102.53
X126.01Y-103.03
X126.01Y-103.53
X126.01Y-104.03
X126.24Y-119.69
X126.28Y-88.42
X126.28Y-88.92
X126.28Y-89.42
X126.28Y-89.92
X126.28Y-90.42
X126.28Y-90.92
X126.51Y-92.03
X126.51Y-92.53
X126.51Y-93.03
X126.51Y-93.53
X126.51Y-94.03
X126.51Y-94.53
X126.51Y-95.03
X126.51Y-95.53
X126.51Y-96.03
X126.51Y-96.53
X126.51Y-100.53
X126.51Y-101.03
X126.51Y-101.53
X126.51Y-102.03
X126.51Y-102.53
X126.51Y-103.03
X126.51Y-103.53
X126.51Y-104.03
X126.78Y-88.42
X126.78Y-88.92
X126.78Y-89.42
X126.78Y-89.92
X126.78Y-90.42
X126.78Y-90.92
X126.83Y-55.41
X126.86Y-56.81
X126.92Y-53.16
X127.01Y-92.03
X127.01Y-92.53
X127.01Y-93.03
X127.01Y-93.53
X127.01Y-94.03
X127.01Y-94.53
X127.01Y-95.03
X127.01Y-95.53
X127.01Y-96.03
X127.01Y-96.53
X127.01Y-100.53
X127.01Y-101.03
X127.01Y-101.53
X127.01Y-102.03
X127.01Y-102.53
X127.01Y-103.03
X127.01Y-103.53
X127.01Y-104.03
X127.51Y-92.03
X127.51Y-92.53
X127.51Y-93.03
X127.51Y-93.53
X127.51Y-94.03
X127.51Y-94.53
X127.51Y-95.03
X127.51Y-95.53
X127.51Y-96.03
X127.51Y-96.53
X127.51Y-100.53
X127.51Y-101.03
X127.51Y-101.53
X127.51Y-102.03
X127.51Y-102.53
X127.51Y-103.03
X127.51Y-103.53
X127.51Y-104.03
X127.87Y-55.41
X127.9Y-56.81
X127.93Y-53.12
X129.722Y-84.125
X129.722Y-84.925
X129.949Y-62.311
X130.3Y-52.025
X130.322Y-84.155
X130.322Y-84.925
X131.51Y-57.81
X131.765Y-44.145
X131.98Y-59.18
X132.26Y-57.82
X132.55Y-43.61
X132.93Y-57.81
X133.04Y-52.03
X133.16Y-54.87
X133.16Y-55.75
X133.637Y-57.81
X134.06Y-54.86
X134.06Y-55.74
X134.37Y-61.28
X134.39Y-59.26
X134.39Y-59.76
X134.39Y-60.26
X134.39Y-60.76
X134.555Y-52.007
X134.63Y-47.357
X134.805Y-49.632
X134.87Y-61.28
X134.89Y-59.26
X134.89Y-59.76
X134.89Y-60.26
X134.89Y-60.76
X134.97Y-54.87
X134.97Y-55.75
X135.37Y-61.28
X135.39Y-59.26
X135.39Y-59.76
X135.39Y-60.26
X135.39Y-60.76
X135.4Y-93.31
X135.4Y-93.91
X135.4Y-94.51
X135.4Y-95.11
X135.47Y-87.05
X135.47Y-87.65
X135.47Y-88.25
X135.47Y-88.85
X135.87Y-61.28
X135.89Y-59.26
X135.89Y-59.76
X135.89Y-60.26
X135.89Y-60.76
X135.9Y-53.12
X135.9Y-54.0
X135.9Y-54.88
X135.9Y-55.76
X136.03Y-93.31
X136.03Y-93.91
X136.03Y-94.51
X136.03Y-95.11
X136.1Y-87.05
X136.1Y-87.65
X136.1Y-88.25
X136.1Y-88.85
X136.56Y-42.08
X136.63Y-93.31
X136.63Y-93.91
X136.63Y-94.51
X136.63Y-95.11
X136.66Y-96.72
X136.66Y-97.22
X136.66Y-97.72
X136.66Y-98.22
X136.69Y-100.19
X136.69Y-100.69
X136.69Y-101.19
X136.69Y-101.69
X136.7Y-87.05
X136.7Y-87.65
X136.7Y-88.25
X136.7Y-88.85
X136.81Y-53.13
X136.81Y-54.01
X136.81Y-54.89
X136.81Y-55.77
X137.12Y-42.58
X137.16Y-96.72
X137.16Y-97.22
X137.16Y-97.72
X137.16Y-98.22
X137.19Y-100.19
X137.19Y-100.69
X137.19Y-101.19
X137.19Y-101.69
X137.27Y-93.31
X137.27Y-93.91
X137.27Y-94.51
X137.27Y-95.11
X137.34Y-87.05
X137.34Y-87.65
X137.34Y-88.25
X137.34Y-88.85
X137.43Y-47.382
X137.66Y-96.72
X137.66Y-97.22
X137.66Y-97.72
X137.66Y-98.22
X137.69Y-100.19
X137.69Y-100.69
X137.69Y-101.19
X137.69Y-101.69
X138.16Y-96.72
X138.16Y-97.22
X138.16Y-97.72
X138.16Y-98.22
X138.19Y-100.19
X138.19Y-100.69
X138.19Y-101.19
X138.19Y-101.69
X138.27Y-59.18
X138.38Y-50.382
X138.68Y-117.41
X138.7Y-118.46
X138.97Y-96.72
X138.97Y-97.22
X138.97Y-97.72
X138.97Y-98.22
X139.0Y-89.0
X139.0Y-90.0
X139.0Y-100.19
X139.0Y-100.69
X139.0Y-101.19
X139.0Y-101.69
X139.42Y-82.45
X139.43Y-83.61
X139.47Y-96.72
X139.47Y-97.22
X139.47Y-97.72
X139.47Y-98.22
X139.5Y-100.19
X139.5Y-100.69
X139.5Y-101.19
X139.5Y-101.69
X139.97Y-96.72
X139.97Y-97.22
X139.97Y-97.72
X139.97Y-98.22
X140.0Y-89.0
X140.0Y-90.0
X140.0Y-100.19
X140.0Y-100.69
X140.0Y-101.19
X140.0Y-101.69
X140.13Y-47.382
X140.47Y-96.72
X140.47Y-97.22
X140.47Y-97.72
X140.47Y-98.22
X140.5Y-100.19
X140.5Y-100.69
X140.5Y-101.19
X140.5Y-101.69
X140.539Y-84.76
X140.955Y-50.107
X141.0Y-89.0
X141.0Y-90.0
X141.28Y-96.72
X141.28Y-97.22
X141.28Y-97.72
X141.28Y-98.22
X141.31Y-100.19
X141.31Y-100.69
X141.31Y-101.19
X141.31Y-101.69
X141.539Y-86.96
X141.629Y-85.19
X141.78Y-96.72
X141.78Y-97.22
X141.78Y-97.72
X141.78Y-98.22
X141.81Y-100.19
X141.81Y-100.69
X141.81Y-101.19
X141.81Y-101.69
X142.0Y-89.0
X142.0Y-90.0
X142.28Y-96.72
X142.28Y-97.22
X142.28Y-97.72
X142.28Y-98.22
X142.31Y-100.19
X142.31Y-100.69
X142.31Y-101.19
X142.31Y-101.69
X142.75Y-81.69
X142.78Y-96.72
X142.78Y-97.22
X142.78Y-97.72
X142.78Y-98.22
X142.81Y-100.19
X142.81Y-100.69
X142.81Y-101.19
X142.81Y-101.69
X142.9Y-109.38
X142.93Y-108.42
X143.57Y-96.73
X143.57Y-97.23
X143.57Y-97.73
X143.57Y-98.23
X143.6Y-100.2
X143.6Y-100.7
X143.6Y-101.2
X143.6Y-101.7
X143.72Y-81.69
X143.73Y-113.5
X143.749Y-114.7
X143.915Y-110.115
X143.925Y-107.32
X143.96Y-116.61
X144.07Y-96.73
X144.07Y-97.23
X144.07Y-97.73
X144.07Y-98.23
X144.1Y-100.2
X144.1Y-100.7
X144.1Y-101.2
X144.1Y-101.7
X144.57Y-96.73
X144.57Y-97.23
X144.57Y-97.73
X144.57Y-98.23
X144.6Y-100.2
X144.6Y-100.7
X144.6Y-101.2
X144.6Y-101.7
X145.07Y-96.73
X145.07Y-97.23
X145.07Y-97.73
X145.07Y-98.23
X145.1Y-100.2
X145.1Y-100.7
X145.1Y-101.2
X145.1Y-101.7
X145.14Y-116.61
X145.16Y-82.59
X145.89Y-96.73
X145.89Y-97.23
X145.89Y-97.73
X145.89Y-98.23
X145.92Y-82.404
X145.92Y-100.2
X145.92Y-100.7
X145.92Y-101.2
X145.92Y-101.7
X146.39Y-96.73
X146.39Y-97.23
X146.39Y-97.73
X146.39Y-98.23
X146.42Y-100.2
X146.42Y-100.7
X146.42Y-101.2
X146.42Y-101.7
X146.44Y-107.17
X146.44Y-107.8
X146.46Y-116.3
X146.47Y-117.01
X146.47Y-117.76
X146.47Y-118.51
X146.65Y-82.912
X146.89Y-96.73
X146.89Y-97.23
X146.89Y-97.73
X146.89Y-98.23
X146.92Y-100.2
X146.92Y-100.7
X146.92Y-101.2
X146.92Y-101.7
X147.19Y-107.17
X147.2Y-107.8
X147.21Y-116.3
X147.22Y-117.01
X147.22Y-117.76
X147.22Y-118.51
X147.39Y-96.73
X147.39Y-97.23
X147.39Y-97.73
X147.39Y-98.23
X147.42Y-100.2
X147.42Y-100.7
X147.42Y-101.2
X147.42Y-101.7
X147.545Y-83.005
X147.94Y-107.17
X147.94Y-107.8
X147.96Y-116.3
X147.97Y-117.01
X147.97Y-117.76
X147.97Y-118.51
X148.0Y-51.0
X148.0Y-52.0
X148.0Y-53.0
X148.0Y-54.0
X148.0Y-55.0
X148.0Y-56.0
X148.0Y-57.0
X148.0Y-59.0
X148.0Y-60.0
X148.0Y-61.0
X148.0Y-62.0
X148.0Y-63.0
X148.0Y-64.0
X148.0Y-65.0
X148.0Y-66.0
X148.0Y-67.0
X148.15Y-96.73
X148.15Y-97.23
X148.15Y-97.73
X148.15Y-98.23
X148.18Y-100.2
X148.18Y-100.7
X148.18Y-101.2
X148.18Y-101.7
X148.5Y-81.5
X148.65Y-96.73
X148.65Y-97.23
X148.65Y-97.73
X148.65Y-98.23
X148.68Y-100.2
X148.68Y-100.7
X148.68Y-101.2
X148.68Y-101.7
X148.69Y-107.17
X148.69Y-107.8
X148.71Y-80.13
X148.71Y-116.3
X148.72Y-117.01
X148.72Y-117.76
X148.72Y-118.51
X149.0Y-51.0
X149.0Y-52.0
X149.0Y-53.0
X149.0Y-54.0
X149.0Y-57.0
X149.0Y-59.0
X149.0Y-62.0
X149.0Y-63.0
X149.0Y-64.0
X149.0Y-65.0
X149.0Y-66.0
X149.0Y-67.0
X149.15Y-96.73
X149.15Y-97.23
X149.15Y-97.73
X149.15Y-98.23
X149.16Y-84.28
X149.18Y-100.2
X149.18Y-100.7
X149.18Y-101.2
X149.18Y-101.7
X149.44Y-107.17
X149.46Y-116.3
X149.47Y-117.01
X149.47Y-117.76
X149.47Y-118.51
X149.5Y-107.8
X149.65Y-96.73
X149.65Y-97.23
X149.65Y-97.73
X149.65Y-98.23
X149.68Y-100.2
X149.68Y-100.7
X149.68Y-101.2
X149.68Y-101.7
X149.71Y-83.3
X150.0Y-51.0
X150.0Y-52.0
X150.0Y-53.0
X150.0Y-57.0
X150.0Y-62.0
X150.0Y-63.0
X150.0Y-64.0
X150.0Y-65.0
X150.0Y-66.0
X150.0Y-67.0
X150.03Y-86.29
X150.09Y-88.57
X150.09Y-89.07
X150.09Y-89.57
X150.09Y-90.07
X150.09Y-90.57
X150.19Y-107.17
X150.19Y-107.8
X150.21Y-116.3
X150.22Y-117.01
X150.22Y-117.76
X150.22Y-118.51
X150.59Y-88.57
X150.59Y-89.07
X150.59Y-89.57
X150.59Y-90.07
X150.59Y-90.57
X150.94Y-107.17
X150.94Y-107.8
X150.95Y-46.49
X150.95Y-47.69
X150.96Y-116.3
X150.97Y-117.01
X150.97Y-117.76
X150.97Y-118.51
X151.0Y-51.0
X151.0Y-52.0
X151.0Y-53.0
X151.0Y-57.0
X151.0Y-62.0
X151.0Y-63.0
X151.0Y-64.0
X151.0Y-65.0
X151.0Y-66.0
X151.0Y-67.0
X151.09Y-88.57
X151.09Y-89.07
X151.09Y-89.57
X151.09Y-90.07
X151.09Y-90.57
X151.69Y-107.17
X151.69Y-107.8
X151.71Y-116.3
X151.72Y-117.01
X151.72Y-117.76
X151.72Y-118.51
X152.0Y-51.0
X152.0Y-52.0
X152.0Y-53.0
X152.0Y-54.0
X152.0Y-55.0
X152.0Y-56.0
X152.0Y-57.0
X152.0Y-59.0
X152.0Y-61.0
X152.0Y-62.0
X152.0Y-63.0
X152.0Y-64.0
X152.0Y-65.0
X152.0Y-66.0
X152.0Y-67.0
X152.01Y-46.46
X152.01Y-47.69
X152.75Y-116.61
X153.0Y-51.0
X153.0Y-52.0
X153.0Y-53.0
X153.0Y-54.0
X153.0Y-55.0
X153.0Y-56.0
X153.0Y-57.0
X153.0Y-59.0
X153.0Y-60.0
X153.0Y-61.0
X153.0Y-62.0
X153.0Y-63.0
X153.0Y-64.0
X153.0Y-65.0
X153.0Y-66.0
X153.0Y-67.0
X153.56Y-92.58
X153.56Y-93.08
X153.56Y-93.58
X153.56Y-94.08
X153.56Y-94.58
X153.56Y-95.08
X153.56Y-95.58
X153.56Y-96.08
X153.57Y-100.59
X153.57Y-101.09
X153.57Y-101.59
X153.57Y-102.09
X153.57Y-102.59
X153.57Y-103.09
X153.57Y-103.59
X153.57Y-104.09
X153.95Y-116.61
X153.96Y-114.33
X154.0Y-51.0
X154.0Y-52.0
X154.0Y-53.0
X154.0Y-54.0
X154.0Y-55.0
X154.0Y-56.0
X154.0Y-57.0
X154.0Y-59.0
X154.0Y-60.0
X154.0Y-61.0
X154.0Y-62.0
X154.0Y-63.0
X154.0Y-64.0
X154.0Y-65.0
X154.0Y-66.0
X154.0Y-67.0
X154.04Y-107.3
X154.06Y-92.58
X154.06Y-93.08
X154.06Y-93.58
X154.06Y-94.08
X154.06Y-94.58
X154.06Y-95.08
X154.06Y-95.58
X154.06Y-96.08
X154.07Y-100.59
X154.07Y-101.09
X154.07Y-101.59
X154.07Y-102.09
X154.07Y-102.59
X154.07Y-103.09
X154.07Y-103.59
X154.07Y-104.09
X154.2Y-110.05
X154.56Y-92.58
X154.56Y-93.08
X154.56Y-93.58
X154.56Y-94.08
X154.56Y-94.58
X154.56Y-95.08
X154.56Y-95.58
X154.56Y-96.08
X154.57Y-100.59
X154.57Y-101.09
X154.57Y-101.59
X154.57Y-102.09
X154.57Y-102.59
X154.57Y-103.09
X154.57Y-103.59
X154.57Y-104.09
X155.0Y-51.0
X155.0Y-52.0
X155.0Y-53.0
X155.0Y-54.0
X155.0Y-55.0
X155.0Y-56.0
X155.0Y-57.0
X155.0Y-59.0
X155.0Y-60.0
X155.0Y-61.0
X155.0Y-62.0
X155.0Y-63.0
X155.0Y-64.0
X155.0Y-65.0
X155.0Y-66.0
X155.0Y-67.0
X155.05Y-108.17
X155.05Y-109.13
X155.06Y-92.58
X155.06Y-93.08
X155.06Y-93.58
X155.06Y-94.08
X155.06Y-94.58
X155.06Y-95.08
X155.06Y-95.58
X155.06Y-96.08
X155.07Y-100.59
X155.07Y-101.09
X155.07Y-101.59
X155.07Y-102.09
X155.07Y-102.59
X155.07Y-103.09
X155.07Y-103.59
X155.07Y-104.09
X155.356Y-114.55
X155.56Y-92.58
X155.56Y-93.08
X155.56Y-93.58
X155.56Y-94.08
X155.56Y-94.58
X155.56Y-95.08
X155.56Y-95.58
X155.56Y-96.08
X155.57Y-100.59
X155.57Y-101.09
X155.57Y-101.59
X155.57Y-102.09
X155.57Y-102.59
X155.57Y-103.09
X155.57Y-103.59
X155.57Y-104.09
X155.821Y-114.027
X156.0Y-51.0
X156.0Y-52.0
X156.0Y-53.0
X156.0Y-54.0
X156.0Y-55.0
X156.0Y-56.0
X156.0Y-57.0
X156.0Y-59.0
X156.0Y-60.0
X156.0Y-61.0
X156.0Y-62.0
X156.0Y-63.0
X156.0Y-64.0
X156.0Y-65.0
X156.0Y-66.0
X156.0Y-67.0
X157.0Y-51.0
X157.0Y-52.0
X157.0Y-53.0
X157.0Y-54.0
X157.0Y-55.0
X157.0Y-56.0
X157.0Y-57.0
X157.0Y-59.0
X157.0Y-60.0
X157.0Y-61.0
X157.0Y-62.0
X157.0Y-63.0
X157.0Y-64.0
X157.0Y-65.0
X157.0Y-66.0
X157.0Y-67.0
X158.0Y-51.0
X158.0Y-52.0
X158.0Y-53.0
X158.0Y-54.0
X158.0Y-55.0
X158.0Y-56.0
X158.0Y-57.0
X158.0Y-59.0
X158.0Y-60.0
X158.0Y-61.0
X158.0Y-62.0
X158.0Y-63.0
X158.0Y-64.0
X158.0Y-65.0
X158.0Y-66.0
X158.0Y-67.0
X159.0Y-51.0
X159.0Y-53.0
X159.0Y-54.0
X159.0Y-55.0
X159.0Y-56.0
X159.0Y-57.0
X159.0Y-59.0
X159.0Y-60.0
X159.0Y-61.0
X159.0Y-62.0
X159.0Y-65.0
X159.0Y-66.0
X159.0Y-67.0
X160.0Y-54.0
X160.0Y-55.0
X160.0Y-56.0
X160.0Y-57.0
X160.0Y-59.0
X160.0Y-60.0
X160.0Y-61.0
X160.0Y-65.0
X160.0Y-66.0
X160.0Y-67.0
X160.02Y-96.84
X160.04Y-97.54
X160.203Y-77.535
X160.3Y-46.8
X160.3Y-47.4
X160.3Y-48.0
X160.85Y-96.86
X160.87Y-97.56
X160.9Y-48.1
X160.92Y-46.8
X160.92Y-47.44
X161.0Y-54.0
X161.0Y-55.0
X161.0Y-56.0
X161.0Y-57.0
X161.0Y-59.0
X161.0Y-60.0
X161.0Y-61.0
X161.0Y-65.0
X161.0Y-66.0
X161.0Y-67.0
X161.06Y-50.84
X161.5Y-46.8
X161.5Y-47.44
X161.5Y-48.1
X162.0Y-51.0
X162.0Y-52.0
X162.0Y-53.0
X162.0Y-54.0
X162.0Y-55.0
X162.0Y-56.0
X162.0Y-57.0
X162.0Y-59.0
X162.0Y-60.0
X162.0Y-61.0
X162.0Y-62.0
X162.0Y-63.0
X162.0Y-64.0
X162.0Y-65.0
X162.0Y-66.0
X162.0Y-67.0
X163.0Y-51.0
X163.0Y-52.0
X163.0Y-53.0
X163.0Y-54.0
X163.0Y-55.0
X163.0Y-56.0
X163.0Y-57.0
X163.0Y-59.0
X163.0Y-60.0
X163.0Y-61.0
X163.0Y-62.0
X163.0Y-63.0
X163.0Y-64.0
X163.0Y-65.0
X163.0Y-66.0
X163.0Y-67.0
T2
X103.08Y-103.13
X104.58Y-103.13
X110.05Y-108.35
X110.05Y-109.75
X110.05Y-110.55
X110.05Y-112.25
X110.05Y-113.95
X110.05Y-115.65
X111.025Y-109.05
X111.029Y-114.804
X111.037Y-113.1
X111.05Y-111.4
X112.0Y-108.35
X112.0Y-109.05
X112.0Y-109.75
X112.0Y-110.55
X112.0Y-111.4
X112.0Y-112.25
X112.0Y-113.1
X112.0Y-113.95
X112.0Y-114.8
X112.0Y-115.65
X113.0Y-109.05
X113.0Y-110.55
X113.0Y-111.411
X113.0Y-112.25
X113.0Y-113.1
X113.0Y-113.95
X113.0Y-114.789
X113.0Y-115.65
X114.0Y-108.35
X114.0Y-109.05
X114.0Y-109.75
X114.0Y-110.55
X114.0Y-111.4
X114.0Y-112.25
X114.0Y-113.1
X114.0Y-113.95
X114.0Y-114.8
X114.0Y-115.65
X114.962Y-113.1
X114.975Y-109.05
X114.975Y-111.4
X114.975Y-114.8
X115.95Y-108.35
X115.95Y-109.75
X115.95Y-110.55
X115.95Y-112.25
X115.95Y-113.95
X115.95Y-115.65
X119.72Y-85.85
X119.72Y-87.25
X119.72Y-88.65
X121.0Y-84.85
X121.0Y-85.85
X121.0Y-87.25
X121.0Y-88.65
X121.0Y-89.65
X122.28Y-85.85
X122.28Y-87.25
X122.28Y-88.65
X144.07Y-85.85
X144.07Y-87.25
X144.07Y-88.65
X145.35Y-84.85
X145.35Y-85.85
X145.35Y-87.25
X145.35Y-88.65
X145.35Y-89.65
X146.05Y-108.35
X146.05Y-109.75
X146.05Y-110.55
X146.05Y-112.25
X146.05Y-113.95
X146.05Y-115.65
X146.63Y-85.85
X146.63Y-87.25
X146.63Y-88.65
X147.025Y-109.05
X147.029Y-114.804
X147.037Y-113.1
X147.05Y-111.4
X148.0Y-108.35
X148.0Y-109.05
X148.0Y-109.75
X148.0Y-110.55
X148.0Y-111.4
X148.0Y-112.25
X148.0Y-113.1
X148.0Y-113.95
X148.0Y-114.8
X148.0Y-115.65
X149.0Y-109.05
X149.0Y-110.55
X149.0Y-111.411
X149.0Y-112.25
X149.0Y-113.1
X149.0Y-113.95
X149.0Y-114.789
X149.0Y-115.65
X150.0Y-108.35
X150.0Y-109.05
X150.0Y-109.75
X150.0Y-110.55
X150.0Y-111.4
X150.0Y-112.25
X150.0Y-113.1
X150.0Y-113.95
X150.0Y-114.8
X150.0Y-115.65
X150.963Y-113.1
X150.975Y-109.05
X150.975Y-111.4
X150.975Y-114.8
X151.95Y-108.35
X151.95Y-109.75
X151.95Y-110.55
X151.95Y-112.25
X151.95Y-113.95
X151.95Y-115.65
T3
X99.6Y-41.5
X99.6Y-146.5
X100.303Y-39.803
X100.303Y-43.197
X100.303Y-144.803
X100.303Y-148.197
X102.0Y-39.1
X102.0Y-43.9
X102.0Y-144.1
X102.0Y-148.9
X103.697Y-39.803
X103.697Y-43.197
X103.697Y-144.803
X103.697Y-148.197
X104.4Y-41.5
X104.4Y-146.5
X157.6Y-41.5
X157.6Y-146.5
X158.303Y-39.803
X158.303Y-43.197
X158.303Y-144.803
X158.303Y-148.197
X160.0Y-39.1
X160.0Y-43.9
X160.0Y-144.1
X160.0Y-148.9
X161.697Y-39.803
X161.697Y-43.197
X161.697Y-144.803
X161.697Y-148.197
X162.4Y-41.5
X162.4Y-146.5
T5
X147.8Y-43.09
X147.8Y-48.17
X148.2Y-40.55
X148.2Y-45.63
X160.35Y-52.25
X160.35Y-63.25
T6
X112.19Y-146.339
X114.73Y-146.339
X117.27Y-146.339
X119.81Y-146.339
T7
X114.73Y-148.499
T8
X150.35Y-55.25
X150.35Y-60.25
T9
X102.0Y-41.5
X102.0Y-146.5
X160.0Y-41.5
X160.0Y-146.5
T10
X106.0Y-87.0
X106.0Y-137.0
X131.0Y-112.0
X156.0Y-87.0
X156.0Y-137.0
T4
G00X118.03Y-40.485
M15
G01X118.03Y-41.285
M16
G05
G00X118.03Y-44.515
M15
G01X118.03Y-45.615
M16
G05
G00X126.67Y-40.485
M15
G01X126.67Y-41.285
M16
G05
G00X126.67Y-44.515
M15
G01X126.67Y-45.615
M16
G05
M30
