%TF.GenerationSoftware,KiCad,Pcbnew,9.0.7*%
%TF.CreationDate,2026-02-09T14:46:23+02:00*%
%TF.ProjectId,BitaxeGT,42697461-7865-4475-942e-6b696361645f,v801*%
%TF.SameCoordinates,Original*%
%TF.FileFunction,Soldermask,Bot*%
%TF.FilePolarity,Negative*%
%FSLAX46Y46*%
G04 Gerber Fmt 4.6, Leading zero omitted, Abs format (unit mm)*
G04 Created by KiCad (PCBNEW 9.0.7) date 2026-02-09 14:46:23*
%MOMM*%
%LPD*%
G01*
G04 APERTURE LIST*
G04 Aperture macros list*
%AMRoundRect*
0 Rectangle with rounded corners*
0 $1 Rounding radius*
0 $2 $3 $4 $5 $6 $7 $8 $9 X,Y pos of 4 corners*
0 Add a 4 corners polygon primitive as box body*
4,1,4,$2,$3,$4,$5,$6,$7,$8,$9,$2,$3,0*
0 Add four circle primitives for the rounded corners*
1,1,$1+$1,$2,$3*
1,1,$1+$1,$4,$5*
1,1,$1+$1,$6,$7*
1,1,$1+$1,$8,$9*
0 Add four rect primitives between the rounded corners*
20,1,$1+$1,$2,$3,$4,$5,0*
20,1,$1+$1,$4,$5,$6,$7,0*
20,1,$1+$1,$6,$7,$8,$9,0*
20,1,$1+$1,$8,$9,$2,$3,0*%
%AMFreePoly0*
4,1,9,3.862500,-0.866500,0.737500,-0.866500,0.737500,-0.450000,-0.737500,-0.450000,-0.737500,0.450000,0.737500,0.450000,0.737500,0.866500,3.862500,0.866500,3.862500,-0.866500,3.862500,-0.866500,$1*%
G04 Aperture macros list end*
%ADD10C,1.050000*%
%ADD11C,0.000000*%
%ADD12C,0.120000*%
%ADD13C,2.000000*%
%ADD14C,7.000000*%
%ADD15C,0.800000*%
%ADD16C,6.400000*%
%ADD17C,1.300000*%
%ADD18O,1.574800X4.000000*%
%ADD19C,1.500000*%
%ADD20C,1.700000*%
%ADD21O,1.700000X1.700000*%
%ADD22RoundRect,0.135000X0.185000X-0.135000X0.185000X0.135000X-0.185000X0.135000X-0.185000X-0.135000X0*%
%ADD23C,1.000000*%
%ADD24RoundRect,0.140000X0.170000X-0.140000X0.170000X0.140000X-0.170000X0.140000X-0.170000X-0.140000X0*%
%ADD25RoundRect,0.140000X-0.140000X-0.170000X0.140000X-0.170000X0.140000X0.170000X-0.140000X0.170000X0*%
%ADD26RoundRect,0.135000X0.135000X0.185000X-0.135000X0.185000X-0.135000X-0.185000X0.135000X-0.185000X0*%
%ADD27RoundRect,0.140000X-0.170000X0.140000X-0.170000X-0.140000X0.170000X-0.140000X0.170000X0.140000X0*%
%ADD28C,0.990600*%
%ADD29C,0.787400*%
%ADD30RoundRect,0.250000X-0.650000X0.325000X-0.650000X-0.325000X0.650000X-0.325000X0.650000X0.325000X0*%
%ADD31RoundRect,0.225000X0.225000X0.250000X-0.225000X0.250000X-0.225000X-0.250000X0.225000X-0.250000X0*%
%ADD32RoundRect,0.225000X-0.250000X0.225000X-0.250000X-0.225000X0.250000X-0.225000X0.250000X0.225000X0*%
%ADD33R,1.100000X1.300000*%
%ADD34RoundRect,0.150000X-0.512500X-0.150000X0.512500X-0.150000X0.512500X0.150000X-0.512500X0.150000X0*%
%ADD35RoundRect,0.062500X0.337500X0.062500X-0.337500X0.062500X-0.337500X-0.062500X0.337500X-0.062500X0*%
%ADD36RoundRect,0.062500X0.062500X0.337500X-0.062500X0.337500X-0.062500X-0.337500X0.062500X-0.337500X0*%
%ADD37C,0.400000*%
%ADD38R,3.300000X5.300000*%
%ADD39R,0.599999X0.240000*%
%ADD40R,0.240000X0.599999*%
%ADD41C,0.499999*%
%ADD42R,2.000001X1.000000*%
%ADD43C,4.400000*%
%ADD44C,7.604000*%
%ADD45C,2.500000*%
%ADD46RoundRect,0.135000X-0.135000X-0.185000X0.135000X-0.185000X0.135000X0.185000X-0.135000X0.185000X0*%
%ADD47R,0.220000X0.599999*%
%ADD48R,1.270000X0.889000*%
%ADD49R,0.787400X1.447800*%
%ADD50C,3.000000*%
%ADD51RoundRect,0.250000X0.475000X-0.250000X0.475000X0.250000X-0.475000X0.250000X-0.475000X-0.250000X0*%
%ADD52R,2.600000X4.000000*%
%ADD53R,0.300000X1.300000*%
%ADD54R,2.000000X1.600000*%
%ADD55C,0.650000*%
%ADD56RoundRect,0.150000X-0.150000X-0.425000X0.150000X-0.425000X0.150000X0.425000X-0.150000X0.425000X0*%
%ADD57RoundRect,0.075000X-0.075000X-0.500000X0.075000X-0.500000X0.075000X0.500000X-0.075000X0.500000X0*%
%ADD58O,1.000000X1.800000*%
%ADD59O,1.000000X2.100000*%
%ADD60RoundRect,0.135000X-0.185000X0.135000X-0.185000X-0.135000X0.185000X-0.135000X0.185000X0.135000X0*%
%ADD61RoundRect,0.250000X-0.450000X0.262500X-0.450000X-0.262500X0.450000X-0.262500X0.450000X0.262500X0*%
%ADD62RoundRect,0.225000X0.250000X-0.225000X0.250000X0.225000X-0.250000X0.225000X-0.250000X-0.225000X0*%
%ADD63RoundRect,0.250000X-0.262500X-0.450000X0.262500X-0.450000X0.262500X0.450000X-0.262500X0.450000X0*%
%ADD64RoundRect,0.250000X-1.045000X0.785000X-1.045000X-0.785000X1.045000X-0.785000X1.045000X0.785000X0*%
%ADD65R,0.900000X1.500000*%
%ADD66R,1.500000X0.900000*%
%ADD67R,0.900000X0.900000*%
%ADD68RoundRect,0.140000X0.140000X0.170000X-0.140000X0.170000X-0.140000X-0.170000X0.140000X-0.170000X0*%
%ADD69RoundRect,0.075000X0.350000X0.075000X-0.350000X0.075000X-0.350000X-0.075000X0.350000X-0.075000X0*%
%ADD70RoundRect,0.075000X0.075000X0.350000X-0.075000X0.350000X-0.075000X-0.350000X0.075000X-0.350000X0*%
%ADD71R,2.100000X2.100000*%
%ADD72RoundRect,0.250000X-0.250000X-0.475000X0.250000X-0.475000X0.250000X0.475000X-0.250000X0.475000X0*%
%ADD73RoundRect,0.225000X-0.225000X0.425000X-0.225000X-0.425000X0.225000X-0.425000X0.225000X0.425000X0*%
%ADD74FreePoly0,270.000000*%
G04 APERTURE END LIST*
%TO.C,FID1*%
D10*
X107725000Y-147900000D02*
G75*
G02*
X106675000Y-147900000I-525000J0D01*
G01*
X106675000Y-147900000D02*
G75*
G02*
X107725000Y-147900000I525000J0D01*
G01*
%TO.C,FID2*%
X155425000Y-39800000D02*
G75*
G02*
X154375000Y-39800000I-525000J0D01*
G01*
X154375000Y-39800000D02*
G75*
G02*
X155425000Y-39800000I525000J0D01*
G01*
D11*
%TO.C,U3*%
G36*
X136805000Y-51381822D02*
G01*
X136805000Y-51588822D01*
X136922049Y-51869751D01*
X137203001Y-51986822D01*
X137290001Y-51986822D01*
X137340003Y-52036822D01*
X137340001Y-52356821D01*
X137290001Y-52406821D01*
X136280000Y-52406821D01*
X136230000Y-52356821D01*
X136180000Y-52306821D01*
X135880001Y-52306821D01*
X135830001Y-52256822D01*
X135830001Y-52106822D01*
X135880001Y-52056822D01*
X136180000Y-52056822D01*
X136230000Y-52006822D01*
X136230000Y-51856822D01*
X136180000Y-51806820D01*
X135880001Y-51806820D01*
X135830001Y-51756820D01*
X135830001Y-51606820D01*
X135880001Y-51556820D01*
X136180000Y-51556820D01*
X136230000Y-51506821D01*
X136230000Y-51381822D01*
X136280000Y-51331822D01*
X136755001Y-51331822D01*
X136805000Y-51381822D01*
G37*
G36*
X139130000Y-51381822D02*
G01*
X139130000Y-51506821D01*
X139180000Y-51556820D01*
X139479999Y-51556820D01*
X139529999Y-51606820D01*
X139529999Y-51756820D01*
X139479999Y-51806820D01*
X139180000Y-51806820D01*
X139130000Y-51856822D01*
X139130000Y-52006822D01*
X139180000Y-52056822D01*
X139479999Y-52056822D01*
X139529999Y-52106822D01*
X139529999Y-52256822D01*
X139479999Y-52306821D01*
X139180000Y-52306821D01*
X139130000Y-52356821D01*
X139080000Y-52406821D01*
X138069999Y-52406821D01*
X138019999Y-52356821D01*
X138019997Y-52036822D01*
X138069999Y-51986822D01*
X138156999Y-51986822D01*
X138407092Y-51882609D01*
X138450806Y-51838896D01*
X138555000Y-51588822D01*
X138555000Y-51381822D01*
X138604999Y-51331822D01*
X139080000Y-51331822D01*
X139130000Y-51381822D01*
G37*
G36*
X137230001Y-52806820D02*
G01*
X137230001Y-54906819D01*
X137180004Y-54956821D01*
X136280000Y-54956821D01*
X136230000Y-54906819D01*
X136230000Y-54771820D01*
X136180000Y-54721820D01*
X135879999Y-54721820D01*
X135830001Y-54671821D01*
X135830001Y-54521821D01*
X135880001Y-54471821D01*
X136180000Y-54471821D01*
X136230000Y-54421821D01*
X136230000Y-54271821D01*
X136180000Y-54221821D01*
X135880001Y-54221821D01*
X135830001Y-54171822D01*
X135830001Y-54021822D01*
X135880001Y-53971819D01*
X136180000Y-53971822D01*
X136230000Y-53921820D01*
X136230000Y-53771822D01*
X136180000Y-53721820D01*
X135880001Y-53721820D01*
X135830001Y-53671820D01*
X135830001Y-53521820D01*
X135880001Y-53471820D01*
X136180000Y-53471820D01*
X136230000Y-53421818D01*
X136230000Y-53271821D01*
X136180000Y-53221816D01*
X135880001Y-53221821D01*
X135830001Y-53171824D01*
X135829999Y-53021821D01*
X135880001Y-52971824D01*
X136180000Y-52971821D01*
X136230000Y-52921822D01*
X136230000Y-52806820D01*
X136280003Y-52756823D01*
X137179998Y-52756821D01*
X137230001Y-52806820D01*
G37*
G36*
X139080000Y-52756823D02*
G01*
X139130000Y-52806820D01*
X139130000Y-52921822D01*
X139180000Y-52971821D01*
X139479999Y-52971824D01*
X139530001Y-53021821D01*
X139529999Y-53171824D01*
X139479999Y-53221821D01*
X139180000Y-53221818D01*
X139130000Y-53271821D01*
X139130000Y-53421818D01*
X139180000Y-53471820D01*
X139479999Y-53471820D01*
X139529999Y-53521820D01*
X139529999Y-53671820D01*
X139479999Y-53721820D01*
X139180000Y-53721820D01*
X139130000Y-53771820D01*
X139130000Y-53921822D01*
X139180000Y-53971819D01*
X139479999Y-53971819D01*
X139529999Y-54021822D01*
X139529999Y-54171822D01*
X139479999Y-54221821D01*
X139180000Y-54221821D01*
X139130000Y-54271821D01*
X139130000Y-54421821D01*
X139180000Y-54471821D01*
X139479999Y-54471821D01*
X139529999Y-54521821D01*
X139529999Y-54671821D01*
X139479999Y-54721820D01*
X139180000Y-54721820D01*
X139130000Y-54771820D01*
X139130000Y-54906819D01*
X139080000Y-54956821D01*
X138179999Y-54956821D01*
X138129999Y-54906819D01*
X138129999Y-52806820D01*
X138180002Y-52756821D01*
X139080000Y-52756823D01*
G37*
D12*
%TO.C,U6*%
X98520000Y-65750000D02*
X98520000Y-47750000D01*
%TD*%
D13*
%TO.C,FID1*%
X107200000Y-147900000D03*
%TD*%
D14*
%TO.C,HS1*%
X106000000Y-87000000D03*
X156000000Y-87000000D03*
X156000000Y-137000000D03*
X106000000Y-137000000D03*
X131000000Y-112000000D03*
%TD*%
D15*
%TO.C,H4*%
X99600000Y-146500000D03*
X100302944Y-144802944D03*
X100302944Y-148197056D03*
X102000000Y-144100000D03*
D16*
X102000000Y-146500000D03*
D15*
X102000000Y-148900000D03*
X103697056Y-144802944D03*
X103697056Y-148197056D03*
X104400000Y-146500000D03*
%TD*%
D17*
%TO.C,J7*%
X114730000Y-144178851D03*
D18*
X119810000Y-147538851D03*
X117270000Y-147538851D03*
D19*
X114730000Y-148498851D03*
D18*
X114730000Y-147538851D03*
X112190000Y-147538851D03*
%TD*%
D15*
%TO.C,H2*%
X99600000Y-41500000D03*
X100302944Y-39802944D03*
X100302944Y-43197056D03*
X102000000Y-39100000D03*
D16*
X102000000Y-41500000D03*
D15*
X102000000Y-43900000D03*
X103697056Y-39802944D03*
X103697056Y-43197056D03*
X104400000Y-41500000D03*
%TD*%
%TO.C,H3*%
X157600000Y-146500000D03*
X158302944Y-144802944D03*
X158302944Y-148197056D03*
X160000000Y-144100000D03*
D16*
X160000000Y-146500000D03*
D15*
X160000000Y-148900000D03*
X161697056Y-144802944D03*
X161697056Y-148197056D03*
X162400000Y-146500000D03*
%TD*%
D20*
%TO.C,J3*%
X148200000Y-40550000D03*
D21*
X147800000Y-43090000D03*
X148200000Y-45630000D03*
X147800000Y-48170000D03*
%TD*%
D13*
%TO.C,FID2*%
X154900000Y-39800000D03*
%TD*%
D15*
%TO.C,H1*%
X157600000Y-41500000D03*
X158302944Y-39802944D03*
X158302944Y-43197056D03*
X160000000Y-39100000D03*
D16*
X160000000Y-41500000D03*
D15*
X160000000Y-43900000D03*
X161697056Y-39802944D03*
X161697056Y-43197056D03*
X162400000Y-41500000D03*
%TD*%
D22*
%TO.C,R29*%
X122170000Y-134750000D03*
X122170000Y-133730000D03*
%TD*%
D23*
%TO.C,TP37*%
X104860000Y-110270000D03*
%TD*%
D24*
%TO.C,C17*%
X126840000Y-54120000D03*
X126840000Y-53160000D03*
%TD*%
D25*
%TO.C,C37*%
X115650000Y-84320000D03*
X116610000Y-84320000D03*
%TD*%
D26*
%TO.C,R22*%
X127880000Y-56810000D03*
X126860000Y-56810000D03*
%TD*%
D27*
%TO.C,C7*%
X149420000Y-87300000D03*
X149420000Y-88260000D03*
%TD*%
D28*
%TO.C,J8*%
X115940000Y-42465000D03*
X110860000Y-43481000D03*
X110860000Y-41449000D03*
D29*
X114670000Y-43100000D03*
X114670000Y-41830000D03*
X113400000Y-43100000D03*
X113400000Y-41830000D03*
X112130000Y-43100000D03*
X112130000Y-41830000D03*
%TD*%
D24*
%TO.C,C84*%
X145150000Y-117580000D03*
X145150000Y-116620000D03*
%TD*%
D22*
%TO.C,R25*%
X128680000Y-46280000D03*
X128680000Y-45260000D03*
%TD*%
D30*
%TO.C,C12*%
X142030000Y-97955000D03*
X142030000Y-100905000D03*
%TD*%
%TO.C,C33*%
X114080000Y-97985000D03*
X114080000Y-100935000D03*
%TD*%
D31*
%TO.C,C49*%
X107425000Y-46150000D03*
X105875000Y-46150000D03*
%TD*%
D32*
%TO.C,C38*%
X116150000Y-109575000D03*
X116150000Y-111125000D03*
%TD*%
D30*
%TO.C,C14*%
X137430000Y-97955000D03*
X137430000Y-100905000D03*
%TD*%
D24*
%TO.C,C65*%
X107125000Y-109205000D03*
X107125000Y-108245000D03*
%TD*%
D33*
%TO.C,U8*%
X103850000Y-118690000D03*
X103850000Y-116390000D03*
X105750000Y-116390000D03*
X105750000Y-118690000D03*
%TD*%
D22*
%TO.C,R20*%
X103700000Y-74830000D03*
X103700000Y-73810000D03*
%TD*%
D34*
%TO.C,U11*%
X103785000Y-127780000D03*
X103785000Y-126830000D03*
X103785000Y-125880000D03*
X106060000Y-125880000D03*
X106060000Y-127780000D03*
%TD*%
D35*
%TO.C,U4*%
X123500000Y-84500000D03*
X123500000Y-85000000D03*
X123500000Y-85500000D03*
X123500000Y-86000000D03*
X123500000Y-86500000D03*
X123500000Y-87000000D03*
X123500000Y-87500000D03*
X123500000Y-88000000D03*
X123500000Y-88500000D03*
X123500000Y-89000000D03*
X123500000Y-89500000D03*
X123500000Y-90000000D03*
D36*
X122750000Y-90750000D03*
X122250000Y-90750000D03*
X121750000Y-90750000D03*
X121250000Y-90750000D03*
X120750000Y-90750000D03*
X120250000Y-90750000D03*
X119750000Y-90750000D03*
X119250000Y-90750000D03*
D35*
X118500000Y-90000000D03*
X118500000Y-89500000D03*
X118500000Y-89000000D03*
X118500000Y-88500000D03*
X118500000Y-88000000D03*
X118500000Y-87500000D03*
X118500000Y-87000000D03*
X118500000Y-86500000D03*
X118500000Y-86000000D03*
X118500000Y-85500000D03*
X118500000Y-85000000D03*
X118500000Y-84500000D03*
D36*
X119250000Y-83750000D03*
X119750000Y-83750000D03*
X120250000Y-83750000D03*
X120750000Y-83750000D03*
X121250000Y-83750000D03*
X121750000Y-83750000D03*
X122250000Y-83750000D03*
X122750000Y-83750000D03*
D37*
X122280000Y-88650000D03*
X122280000Y-87250000D03*
X122280000Y-85850000D03*
X121000000Y-89650000D03*
X121000000Y-88650000D03*
X121000000Y-87250000D03*
D38*
X121000000Y-87250000D03*
D37*
X121000000Y-85850000D03*
X121000000Y-84850000D03*
X119720000Y-88650000D03*
X119720000Y-87250000D03*
X119720000Y-85850000D03*
%TD*%
D24*
%TO.C,C80*%
X108040000Y-117380000D03*
X108040000Y-116420000D03*
%TD*%
D39*
%TO.C,U2*%
X105479999Y-103380000D03*
D40*
X105080000Y-104280000D03*
X104580001Y-104280000D03*
X104080000Y-104280000D03*
X103580000Y-104280000D03*
X103079999Y-104280000D03*
X102580000Y-104280000D03*
D39*
X102180001Y-103380000D03*
X102180001Y-102880000D03*
D40*
X102580000Y-101980000D03*
X103079999Y-101980000D03*
X103580000Y-101980000D03*
X104080000Y-101980000D03*
X104580001Y-101980000D03*
X105080000Y-101980000D03*
D39*
X105479999Y-102880000D03*
D41*
X103079999Y-103130000D03*
D42*
X103830000Y-103130000D03*
D41*
X104580001Y-103130000D03*
%TD*%
D24*
%TO.C,C85*%
X143950000Y-117570000D03*
X143950000Y-116610000D03*
%TD*%
D43*
%TO.C,J6*%
X156000000Y-87000000D03*
D44*
X156000000Y-87000000D03*
%TD*%
D24*
%TO.C,C75*%
X144940000Y-107310000D03*
X144940000Y-106350000D03*
%TD*%
D27*
%TO.C,C68*%
X116750000Y-106345000D03*
X116750000Y-107305000D03*
%TD*%
D45*
%TO.C,TP25*%
X160920000Y-47440000D03*
%TD*%
D32*
%TO.C,C57*%
X109800000Y-109575000D03*
X109800000Y-111125000D03*
%TD*%
D23*
%TO.C,TP28*%
X133305000Y-48756821D03*
%TD*%
D32*
%TO.C,C2*%
X141675000Y-90600000D03*
X141675000Y-92150000D03*
%TD*%
D23*
%TO.C,TP18*%
X108010000Y-129490000D03*
%TD*%
D24*
%TO.C,C53*%
X102420000Y-118030000D03*
X102420000Y-117070000D03*
%TD*%
D23*
%TO.C,TP38*%
X102940000Y-108440000D03*
%TD*%
D46*
%TO.C,R26*%
X103790000Y-114040000D03*
X104810000Y-114040000D03*
%TD*%
D43*
%TO.C,J9*%
X106000000Y-137000000D03*
D44*
X106000000Y-137000000D03*
%TD*%
D26*
%TO.C,R21*%
X151990000Y-47690000D03*
X150970000Y-47690000D03*
%TD*%
D24*
%TO.C,C87*%
X153950000Y-117570000D03*
X153950000Y-116610000D03*
%TD*%
D30*
%TO.C,C11*%
X144330000Y-97955000D03*
X144330000Y-100905000D03*
%TD*%
D27*
%TO.C,C71*%
X117725000Y-109270000D03*
X117725000Y-110230000D03*
%TD*%
D13*
%TO.C,FID3*%
X154500000Y-148000000D03*
%TD*%
D26*
%TO.C,R23*%
X102350000Y-100630000D03*
X101330000Y-100630000D03*
%TD*%
D25*
%TO.C,C20*%
X142760000Y-81690000D03*
X143720000Y-81690000D03*
%TD*%
D32*
%TO.C,C58*%
X152200000Y-109575000D03*
X152200000Y-111125000D03*
%TD*%
D23*
%TO.C,TP23*%
X127960000Y-60490000D03*
%TD*%
D46*
%TO.C,R19*%
X118280000Y-82250000D03*
X119300000Y-82250000D03*
%TD*%
D32*
%TO.C,C55*%
X112990000Y-109575000D03*
X112990000Y-111125000D03*
%TD*%
D27*
%TO.C,C92*%
X121370000Y-138280000D03*
X121370000Y-139240000D03*
%TD*%
D23*
%TO.C,TP36*%
X107690000Y-43200000D03*
%TD*%
D47*
%TO.C,U3*%
X137180001Y-51281822D03*
X137680000Y-51281822D03*
X138179999Y-51281822D03*
%TD*%
D46*
%TO.C,R8*%
X139440000Y-82440000D03*
X140460000Y-82440000D03*
%TD*%
D22*
%TO.C,R36*%
X118790000Y-133680000D03*
X118790000Y-132660000D03*
%TD*%
D27*
%TO.C,C88*%
X102240000Y-126950000D03*
X102240000Y-127910000D03*
%TD*%
D32*
%TO.C,C23*%
X117325000Y-90425000D03*
X117325000Y-91975000D03*
%TD*%
D43*
%TO.C,J10*%
X156000000Y-137000000D03*
D44*
X156000000Y-137000000D03*
%TD*%
D48*
%TO.C,SW1*%
X101797000Y-77485500D03*
X101797000Y-73294500D03*
D49*
X99904700Y-78768200D03*
X99904700Y-72011800D03*
%TD*%
D24*
%TO.C,C66*%
X108125000Y-108255000D03*
X108125000Y-107295000D03*
%TD*%
D30*
%TO.C,C34*%
X111780000Y-97985000D03*
X111780000Y-100935000D03*
%TD*%
D32*
%TO.C,C60*%
X149000000Y-109575000D03*
X149000000Y-111125000D03*
%TD*%
D23*
%TO.C,TP15*%
X148320000Y-104360000D03*
%TD*%
D30*
%TO.C,C32*%
X116380000Y-97985000D03*
X116380000Y-100935000D03*
%TD*%
D50*
%TO.C,J1*%
X150350000Y-60250000D03*
X150350000Y-55250000D03*
D13*
X160350000Y-63250000D03*
X160350000Y-52250000D03*
%TD*%
D32*
%TO.C,C59*%
X150600000Y-109575000D03*
X150600000Y-111125000D03*
%TD*%
D51*
%TO.C,C29*%
X127725000Y-88325000D03*
X127725000Y-86425000D03*
%TD*%
D52*
%TO.C,L1*%
X154550000Y-94365000D03*
X154550000Y-102315000D03*
%TD*%
D32*
%TO.C,C54*%
X114550000Y-109575000D03*
X114550000Y-111125000D03*
%TD*%
D52*
%TO.C,L2*%
X126510000Y-94455000D03*
X126510000Y-102405000D03*
%TD*%
D24*
%TO.C,C81*%
X109170000Y-117390000D03*
X109170000Y-116430000D03*
%TD*%
D23*
%TO.C,TP24*%
X127910000Y-64490000D03*
%TD*%
D46*
%TO.C,R18*%
X135595000Y-49631821D03*
X136615000Y-49631821D03*
%TD*%
D24*
%TO.C,C83*%
X117070000Y-117410000D03*
X117070000Y-116450000D03*
%TD*%
D32*
%TO.C,C24*%
X115850000Y-90425000D03*
X115850000Y-91975000D03*
%TD*%
D53*
%TO.C,J2*%
X139070000Y-44180000D03*
X138570000Y-44180000D03*
X138070000Y-44180000D03*
X137570000Y-44180000D03*
X137070000Y-44180000D03*
X136570000Y-44180000D03*
X136070000Y-44180000D03*
X135570000Y-44180000D03*
D54*
X133870000Y-41500000D03*
X140770000Y-41500000D03*
%TD*%
D55*
%TO.C,J4*%
X119460000Y-44565000D03*
X125240000Y-44565000D03*
D56*
X119150000Y-45640000D03*
X119950000Y-45640000D03*
D57*
X121100000Y-45640000D03*
X122100000Y-45640000D03*
X122600000Y-45640000D03*
X123600000Y-45640000D03*
D56*
X125550000Y-45640000D03*
X124750000Y-45640000D03*
D57*
X124100000Y-45640000D03*
X123100000Y-45640000D03*
X121600000Y-45640000D03*
X120600000Y-45640000D03*
D58*
X118030000Y-40885000D03*
D59*
X118030000Y-45065000D03*
D58*
X126670000Y-40885000D03*
D59*
X126670000Y-45065000D03*
%TD*%
D35*
%TO.C,U1*%
X147850000Y-84500000D03*
X147850000Y-85000000D03*
X147850000Y-85500000D03*
X147850000Y-86000000D03*
X147850000Y-86500000D03*
X147850000Y-87000000D03*
X147850000Y-87500000D03*
X147850000Y-88000000D03*
X147850000Y-88500000D03*
X147850000Y-89000000D03*
X147850000Y-89500000D03*
X147850000Y-90000000D03*
D36*
X147100000Y-90750000D03*
X146600000Y-90750000D03*
X146100000Y-90750000D03*
X145600000Y-90750000D03*
X145100000Y-90750000D03*
X144600000Y-90750000D03*
X144100000Y-90750000D03*
X143600000Y-90750000D03*
D35*
X142850000Y-90000000D03*
X142850000Y-89500000D03*
X142850000Y-89000000D03*
X142850000Y-88500000D03*
X142850000Y-88000000D03*
X142850000Y-87500000D03*
X142850000Y-87000000D03*
X142850000Y-86500000D03*
X142850000Y-86000000D03*
X142850000Y-85500000D03*
X142850000Y-85000000D03*
X142850000Y-84500000D03*
D36*
X143600000Y-83750000D03*
X144100000Y-83750000D03*
X144600000Y-83750000D03*
X145100000Y-83750000D03*
X145600000Y-83750000D03*
X146100000Y-83750000D03*
X146600000Y-83750000D03*
X147100000Y-83750000D03*
D37*
X146630000Y-88650000D03*
X146630000Y-87250000D03*
X146630000Y-85850000D03*
X145350000Y-89650000D03*
X145350000Y-88650000D03*
X145350000Y-87250000D03*
D38*
X145350000Y-87250000D03*
D37*
X145350000Y-85850000D03*
X145350000Y-84850000D03*
X144070000Y-88650000D03*
X144070000Y-87250000D03*
X144070000Y-85850000D03*
%TD*%
D26*
%TO.C,R40*%
X151990000Y-46470000D03*
X150970000Y-46470000D03*
%TD*%
D24*
%TO.C,C67*%
X109150000Y-107330000D03*
X109150000Y-106370000D03*
%TD*%
%TO.C,C46*%
X138270000Y-59180000D03*
X138270000Y-58220000D03*
%TD*%
D22*
%TO.C,R32*%
X121120000Y-134750000D03*
X121120000Y-133730000D03*
%TD*%
%TO.C,R34*%
X119840000Y-133680000D03*
X119840000Y-132660000D03*
%TD*%
D27*
%TO.C,C90*%
X102230000Y-122630000D03*
X102230000Y-123590000D03*
%TD*%
D60*
%TO.C,R35*%
X117660000Y-133660000D03*
X117660000Y-134680000D03*
%TD*%
D23*
%TO.C,TP32*%
X109020000Y-69700000D03*
%TD*%
%TO.C,TP26*%
X104320000Y-92930000D03*
%TD*%
D22*
%TO.C,R33*%
X116610000Y-134680000D03*
X116610000Y-133660000D03*
%TD*%
%TO.C,R30*%
X114670000Y-137820000D03*
X114670000Y-136800000D03*
%TD*%
D61*
%TO.C,R2*%
X160430000Y-95357500D03*
X160430000Y-97182500D03*
%TD*%
D23*
%TO.C,TP17*%
X150820000Y-122080000D03*
%TD*%
D24*
%TO.C,C47*%
X131980000Y-59180000D03*
X131980000Y-58220000D03*
%TD*%
D26*
%TO.C,R1*%
X140480000Y-83570000D03*
X139460000Y-83570000D03*
%TD*%
D24*
%TO.C,C64*%
X108125000Y-110155000D03*
X108125000Y-109195000D03*
%TD*%
D27*
%TO.C,C15*%
X140539232Y-84760000D03*
X140539232Y-85720000D03*
%TD*%
D13*
%TO.C,FID4*%
X106900000Y-39900000D03*
%TD*%
D27*
%TO.C,C70*%
X118775000Y-108395000D03*
X118775000Y-109355000D03*
%TD*%
%TO.C,C78*%
X155050000Y-108170000D03*
X155050000Y-109130000D03*
%TD*%
D34*
%TO.C,U12*%
X103775000Y-123522500D03*
X103775000Y-122572500D03*
X103775000Y-121622500D03*
X106050000Y-121622500D03*
X106050000Y-123522500D03*
%TD*%
D27*
%TO.C,C19*%
X150040000Y-84200000D03*
X150040000Y-85160000D03*
%TD*%
D60*
%TO.C,R5*%
X127920000Y-53130000D03*
X127920000Y-54150000D03*
%TD*%
D23*
%TO.C,TP34*%
X130130000Y-52060000D03*
%TD*%
%TO.C,TP19*%
X108010000Y-125240000D03*
%TD*%
D27*
%TO.C,C76*%
X153010000Y-106310000D03*
X153010000Y-107270000D03*
%TD*%
D24*
%TO.C,C74*%
X143925000Y-108280000D03*
X143925000Y-107320000D03*
%TD*%
D32*
%TO.C,C62*%
X145800000Y-109575000D03*
X145800000Y-111125000D03*
%TD*%
D62*
%TO.C,C39*%
X140955000Y-51656821D03*
X140955000Y-50106821D03*
%TD*%
D32*
%TO.C,C56*%
X111400000Y-109575000D03*
X111400000Y-111125000D03*
%TD*%
D63*
%TO.C,R15*%
X128260000Y-84520000D03*
X130085000Y-84520000D03*
%TD*%
D27*
%TO.C,C48*%
X103700000Y-76340000D03*
X103700000Y-77300000D03*
%TD*%
D60*
%TO.C,R31*%
X114670000Y-138950000D03*
X114670000Y-139970000D03*
%TD*%
D22*
%TO.C,R14*%
X130090000Y-46280000D03*
X130090000Y-45260000D03*
%TD*%
D64*
%TO.C,C1*%
X136325000Y-87955000D03*
X136325000Y-94195000D03*
%TD*%
D27*
%TO.C,C79*%
X154050000Y-109195000D03*
X154050000Y-110155000D03*
%TD*%
D23*
%TO.C,TP29*%
X105530000Y-70280000D03*
%TD*%
D32*
%TO.C,C61*%
X147400000Y-109575000D03*
X147400000Y-111125000D03*
%TD*%
D23*
%TO.C,TP35*%
X105320000Y-106830000D03*
%TD*%
%TO.C,TP27*%
X130380000Y-56920000D03*
%TD*%
D65*
%TO.C,U6*%
X106010000Y-48000000D03*
X107280000Y-48000000D03*
X108550000Y-48000000D03*
X109820000Y-48000000D03*
X111090000Y-48000000D03*
X112360000Y-48000000D03*
X113630000Y-48000000D03*
X114900000Y-48000000D03*
X116170000Y-48000000D03*
X117440000Y-48000000D03*
X118710000Y-48000000D03*
X119980000Y-48000000D03*
X121250000Y-48000000D03*
X122520000Y-48000000D03*
D66*
X123770000Y-49765000D03*
X123770000Y-51035000D03*
X123770000Y-52305000D03*
X123770000Y-53575000D03*
X123770000Y-54845000D03*
X123770000Y-56115000D03*
X123770000Y-57385000D03*
X123770000Y-58655000D03*
X123770000Y-59925000D03*
X123770000Y-61195000D03*
X123770000Y-62465000D03*
X123770000Y-63735000D03*
D65*
X122520000Y-65500000D03*
X121250000Y-65500000D03*
X119980000Y-65500000D03*
X118710000Y-65500000D03*
X117440000Y-65500000D03*
X116170000Y-65500000D03*
X114900000Y-65500000D03*
X113630000Y-65500000D03*
X112360000Y-65500000D03*
X111090000Y-65500000D03*
X109820000Y-65500000D03*
X108550000Y-65500000D03*
X107280000Y-65500000D03*
X106010000Y-65500000D03*
D67*
X115130000Y-53850000D03*
X113730000Y-53850000D03*
X112330000Y-53850000D03*
X115130000Y-55250000D03*
X113730000Y-55250000D03*
X112330000Y-55250000D03*
X115130000Y-56650000D03*
X113730000Y-56650000D03*
X112330000Y-56650000D03*
%TD*%
D32*
%TO.C,C3*%
X140200000Y-90600000D03*
X140200000Y-92150000D03*
%TD*%
D27*
%TO.C,C28*%
X126000000Y-86870000D03*
X126000000Y-87830000D03*
%TD*%
%TO.C,C91*%
X107590000Y-122650000D03*
X107590000Y-123610000D03*
%TD*%
D30*
%TO.C,C31*%
X118680000Y-97985000D03*
X118680000Y-100935000D03*
%TD*%
D32*
%TO.C,C41*%
X122980000Y-143600000D03*
X122980000Y-145150000D03*
%TD*%
D62*
%TO.C,C44*%
X133005000Y-53556821D03*
X133005000Y-52006821D03*
%TD*%
D68*
%TO.C,C45*%
X121380000Y-82250000D03*
X120420000Y-82250000D03*
%TD*%
D24*
%TO.C,C18*%
X141650000Y-83490000D03*
X141650000Y-82530000D03*
%TD*%
D23*
%TO.C,TP22*%
X129720000Y-62530000D03*
%TD*%
D30*
%TO.C,C9*%
X148930000Y-97955000D03*
X148930000Y-100905000D03*
%TD*%
D68*
%TO.C,C93*%
X122100000Y-135750000D03*
X121140000Y-135750000D03*
%TD*%
D69*
%TO.C,U13*%
X120045000Y-137160000D03*
X120045000Y-137810000D03*
X120045000Y-138460000D03*
X120045000Y-139110000D03*
D70*
X119070000Y-140085000D03*
X118420000Y-140085000D03*
X117770000Y-140085000D03*
X117120000Y-140085000D03*
D69*
X116145000Y-139110000D03*
X116145000Y-138460000D03*
X116145000Y-137810000D03*
X116145000Y-137160000D03*
D70*
X117120000Y-136185000D03*
X117770000Y-136185000D03*
X118420000Y-136185000D03*
X119070000Y-136185000D03*
D71*
X118095000Y-138135000D03*
%TD*%
D24*
%TO.C,C72*%
X143925000Y-110180000D03*
X143925000Y-109220000D03*
%TD*%
D23*
%TO.C,TP30*%
X101820000Y-92640000D03*
%TD*%
D24*
%TO.C,C86*%
X152750000Y-117570000D03*
X152750000Y-116610000D03*
%TD*%
D30*
%TO.C,C13*%
X139730000Y-97955000D03*
X139730000Y-100905000D03*
%TD*%
D46*
%TO.C,R6*%
X126830000Y-55410000D03*
X127850000Y-55410000D03*
%TD*%
D64*
%TO.C,C22*%
X112475000Y-88180000D03*
X112475000Y-94420000D03*
%TD*%
D23*
%TO.C,TP33*%
X112400000Y-68490000D03*
%TD*%
D30*
%TO.C,C10*%
X146630000Y-97955000D03*
X146630000Y-100905000D03*
%TD*%
D68*
%TO.C,C94*%
X113470000Y-136830000D03*
X112510000Y-136830000D03*
%TD*%
D30*
%TO.C,C35*%
X109467500Y-97985000D03*
X109467500Y-100935000D03*
%TD*%
D24*
%TO.C,C73*%
X142900000Y-109380000D03*
X142900000Y-108420000D03*
%TD*%
D27*
%TO.C,C36*%
X116620000Y-82060000D03*
X116620000Y-83020000D03*
%TD*%
D22*
%TO.C,R28*%
X143740000Y-114540000D03*
X143740000Y-113520000D03*
%TD*%
D46*
%TO.C,R16*%
X114450000Y-82990000D03*
X115470000Y-82990000D03*
%TD*%
%TO.C,R17*%
X138320000Y-49581821D03*
X139340000Y-49581821D03*
%TD*%
D43*
%TO.C,J5*%
X106000000Y-87000000D03*
D44*
X106000000Y-87000000D03*
%TD*%
D22*
%TO.C,R3*%
X140549232Y-87770000D03*
X140549232Y-86750000D03*
%TD*%
D23*
%TO.C,TP31*%
X103570000Y-95100000D03*
%TD*%
D27*
%TO.C,C16*%
X141629232Y-85220000D03*
X141629232Y-86180000D03*
%TD*%
D46*
%TO.C,R24*%
X103790000Y-112750000D03*
X104810000Y-112750000D03*
%TD*%
D72*
%TO.C,C8*%
X159340000Y-93250000D03*
X161240000Y-93250000D03*
%TD*%
D27*
%TO.C,C89*%
X107600000Y-126970000D03*
X107600000Y-127930000D03*
%TD*%
%TO.C,C69*%
X117750000Y-107320000D03*
X117750000Y-108280000D03*
%TD*%
D22*
%TO.C,R27*%
X138690000Y-118430000D03*
X138690000Y-117410000D03*
%TD*%
D27*
%TO.C,C42*%
X125700000Y-84020000D03*
X125700000Y-84980000D03*
%TD*%
D23*
%TO.C,TP4*%
X107770000Y-113610000D03*
%TD*%
D27*
%TO.C,C77*%
X154050000Y-107295000D03*
X154050000Y-108255000D03*
%TD*%
D68*
%TO.C,C95*%
X119820000Y-134670000D03*
X118860000Y-134670000D03*
%TD*%
D24*
%TO.C,C51*%
X106320000Y-100880000D03*
X106320000Y-99920000D03*
%TD*%
D30*
%TO.C,C30*%
X120980000Y-97985000D03*
X120980000Y-100935000D03*
%TD*%
D24*
%TO.C,C82*%
X118240000Y-117400000D03*
X118240000Y-116440000D03*
%TD*%
%TO.C,C52*%
X105150000Y-100060000D03*
X105150000Y-99100000D03*
%TD*%
D73*
%TO.C,U5*%
X133637500Y-57810000D03*
D74*
X135137500Y-57897500D03*
D73*
X136637500Y-57810000D03*
%TD*%
D48*
%TO.C,SW2*%
X160203000Y-73344500D03*
X160203000Y-77535500D03*
D49*
X162095300Y-72061800D03*
X162095300Y-78818200D03*
%TD*%
D62*
%TO.C,C43*%
X134555000Y-53556821D03*
X134555000Y-52006821D03*
%TD*%
M02*
